<svg width="165.0209228515625px" height="200.00003662109376px" xmlns="http://www.w3.org/2000/svg" viewBox="167.48953857421876 -25.000018310546878 165.0209228515625 200.00003662109376" style="background: rgba(0, 0, 0, 0);" preserveAspectRatio="xMidYMid"><defs><filter id="editing-jagged" x="-100%" y="-100%" width="300%" height="300%"><feTurbulence result="turb" baseFrequency="0.25" numOctaves="1" seed="1"></feTurbulence><feDisplacementMap in="SourceGraphic" in2="turb" scale="4"></feDisplacementMap></filter></defs><g filter="url(#editing-jagged)"><g transform="translate(205.68641597032547, 106.42999744415283)"><path d="M75.90 0.95L75.90 0.95L75.90 0.95Q69.54 0.95 69.54-5.41L69.54-5.41L69.54-5.41Q69.54-8.80 71.02-12.61L71.02-12.61L71.02-12.61Q72.50-16.43 73.14-18.13L73.14-18.13L73.14-18.13Q74.31-20.99 77.70-27.67L77.70-27.67L77.70-27.67Q83.00-38.90 86.07-43.99L86.07-43.99L55.54-11.77L55.54-11.77Q55.23-9.75 52.79-8.80L52.79-8.80L52.79-8.80Q51.73-8.37 49.08-5.19L49.08-5.19L49.08-5.19Q48.97-5.09 48.65-5.09L48.65-5.09L48.65-5.09Q48.34-5.09 48.07-5.30L48.07-5.30L48.07-5.30Q47.81-5.51 47.91-5.62L47.91-5.62L47.91-5.62Q50.67-9.12 50.77-15.26L50.77-15.26L51.41-46.11L51.41-46.11Q51.41-50.77 53.95-53.85L53.95-53.85L53.95-53.85Q49.71-50.67 47.59-46.32L47.59-46.32L47.59-46.32Q46.75-44.63 43.04-35.19L43.04-35.19L43.04-35.19Q34.56-14.20 26.71-5.83L26.71-5.83L26.71-5.83Q24.06-2.97 19.93-0.95L19.93-0.95L19.93-0.95Q15.79 1.06 12.30 1.06L12.30 1.06L12.30 1.06Q8.80 1.06 5.94-0.85L5.94-0.85L5.94-0.85Q0.64-4.45 0.64-12.40L0.64-12.40L0.64-12.40Q0.64-13.78 1.06-13.89L1.06-13.89L1.06-13.89Q1.80-13.99 1.80-13.04L1.80-13.04L1.80-13.04Q1.80-8.16 4.19-5.56L4.19-5.56L4.19-5.56Q6.57-2.97 10.49-2.97L10.49-2.97L10.49-2.97Q17.28-2.97 24.06-10.49L24.06-10.49L24.06-10.49Q29.79-16.64 34.56-25.02L34.56-25.02L34.56-25.02Q35.93-27.45 36.57-28.57L36.57-28.57L36.57-28.57Q37.21-29.68 38.58-32.54L38.58-32.54L38.58-32.54Q39.96-35.40 40.39-36.25L40.39-36.25L40.39-36.25Q43.67-43.35 44.20-44.52L44.20-44.52L44.20-44.52Q48.12-53 55.23-55.12L55.23-55.12L55.33-55.23L49.50-55.23L49.50-55.23Q32.65-55.23 29.36-50.35L29.36-50.35L29.36-50.35Q28.41-48.87 28.41-47.49L28.41-47.49L28.41-47.49Q28.41-42.82 31.80-41.23L31.80-41.23L31.80-41.23Q32.54-40.92 31.75-40.49L31.75-40.49L31.75-40.49Q30.95-40.07 30.05-40.55L30.05-40.55L30.05-40.55Q29.15-41.02 27.14-43.25L27.14-43.25L27.14-43.25Q24.27-46.64 24.27-49.18L24.27-49.18L24.27-49.18Q24.27-51.73 25.92-53.64L25.92-53.64L25.92-53.64Q27.56-55.54 32.65-56.39L32.65-56.39L32.65-56.39Q39.96-57.77 49.29-57.77L49.29-57.77L49.29-57.77Q49.61-57.77 49.71-57.77L49.71-57.77L61.16-57.77L61.16-57.77Q62.01-57.88 61.00-57.03L61.00-57.03L61.00-57.03Q60.00-56.18 59.78-56.18L59.78-56.18L59.78-56.18Q54.70-55.12 54.70-47.06L54.70-47.06L54.70-47.06Q54.70-39.01 55.54-15.05L55.54-15.05L55.54-14.42L92.33-53.21L92.33-53.21Q96.57-57.66 99.59-59.73L99.59-59.73L99.59-59.73Q102.61-61.80 105.58-61.80L105.58-61.80L105.58-61.80Q106.64-61.80 106.64-61.64L106.64-61.64L106.64-61.64Q106.64-61.48 106.21-60.95L106.21-60.95L106.21-60.95Q105.68-60.42 105.15-60.42L105.15-60.42L105.15-60.42Q100.70-60.42 96.14-53L96.14-53L96.14-53Q89.89-42.72 82.47-26.29L82.47-26.29L82.47-26.29Q75.05-9.86 75.05-4.13L75.05-4.13L75.05-4.13Q75.05-1.17 77.06-1.17L77.06-1.17L77.06-1.17Q77.80-1.17 79.98-2.07L79.98-2.07L79.98-2.07Q82.15-2.97 84.22-4.88L84.22-4.88L84.22-4.88Q86.28-6.78 87.66-8.37L87.66-8.37L87.66-8.37Q89.04-9.96 89.89-11.02L89.89-11.02L89.89-11.02Q90.74-12.08 91.53-13.14L91.53-13.14L91.53-13.14Q92.33-14.20 92.43-14.31L92.43-14.31L92.43-14.31Q93.07-15.26 93.28-14.47L93.28-14.47L93.28-14.47Q93.49-13.67 93.12-13.20L93.12-13.20L93.12-13.20Q92.75-12.72 91.80-11.45L91.80-11.45L91.80-11.45Q90.84-10.18 90.05-9.22L90.05-9.22L90.05-9.22Q89.25-8.27 87.93-6.73L87.93-6.73L87.93-6.73Q86.60-5.19 85.44-4.03L85.44-4.03L85.44-4.03Q80.14 0.95 75.90 0.95Z" fill="#444"></path></g></g><style>text {
  font-size: 64px;
  font-family: Arial Black;
  dominant-baseline: central;
  text-anchor: middle;
}</style></svg>